<svg width="72" height="65" viewBox="0 0 72 65" fill="none" xmlns="http://www.w3.org/2000/svg">
<path fill-rule="evenodd" clip-rule="evenodd" d="M39.1882 0.151381C49.7154 1.09081 56.4094 9.13067 62.4827 16.5286C67.9237 23.1562 71.7088 30.4715 70.6839 38.5164C69.466 48.0762 66.613 58.8207 56.5447 63.1388C46.3671 67.5037 34.1903 63.4933 24.5644 58.2961C16.3268 53.8485 12.7758 46.0455 10.0795 38.0515C7.08669 29.1784 2.93153 19.466 8.86261 11.7436C15.2507 3.42619 27.598 -0.882896 39.1882 0.151381Z" fill="#141416"/>
<path d="M28.2328 53.293C28.0137 53.2921 27.8037 53.2275 27.6472 53.1128L0.24008 32.6029C0.0863528 32.4877 0 32.3315 0 32.1687C0 32.006 0.0863528 31.8498 0.24008 31.7346L27.6472 11.2247C27.7235 11.1671 27.8143 11.1214 27.9143 11.0902C28.0143 11.059 28.1217 11.043 28.23 11.043C28.3384 11.043 28.4457 11.059 28.5457 11.0902C28.6458 11.1214 28.7365 11.1671 28.8129 11.2247L56.22 31.7346C56.3724 31.8503 56.4578 32.0063 56.4578 32.1687C56.4578 32.3312 56.3724 32.4872 56.22 32.6029L28.78 53.1251C28.631 53.229 28.4364 53.2887 28.2328 53.293ZM1.96397 32.1687L28.2328 51.8268L54.5015 32.1687L28.2328 12.5107L1.96397 32.1687Z" fill="white"/>
<path d="M49.4489 48.67C49.341 48.6706 49.234 48.6549 49.1343 48.624C49.0347 48.593 48.9444 48.5474 48.8688 48.4898L41.7543 43.1657C41.6736 43.1095 41.6089 43.0416 41.5641 42.9663C41.5192 42.8909 41.4951 42.8096 41.4931 42.7271C41.4912 42.6446 41.5115 42.5627 41.5528 42.4862C41.594 42.4097 41.6555 42.3402 41.7334 42.2819C41.8114 42.2235 41.9042 42.1776 42.0065 42.1467C42.1087 42.1158 42.2182 42.1006 42.3284 42.102C42.4386 42.1035 42.5473 42.1215 42.648 42.1551C42.7487 42.1887 42.8393 42.2371 42.9145 42.2975L49.4817 47.212L69.5554 32.1899L49.4817 17.1679L28.7841 32.5995C28.6302 32.7152 28.4213 32.7803 28.2032 32.7807C27.9851 32.7811 27.7757 32.7167 27.6211 32.6015C27.4665 32.4864 27.3794 32.33 27.3789 32.1668C27.3784 32.0036 27.4645 31.8469 27.6184 31.7313L48.8688 15.8532C48.9446 15.7958 49.0349 15.7502 49.1345 15.719C49.2341 15.6879 49.3409 15.6719 49.4489 15.6719C49.5568 15.6719 49.6636 15.6879 49.7632 15.719C49.8628 15.7502 49.9531 15.7958 50.029 15.8532L71.2629 31.7435C71.3397 31.8003 71.4006 31.8679 71.4422 31.9424C71.4838 32.0169 71.5053 32.0969 71.5053 32.1776C71.5053 32.2584 71.4838 32.3384 71.4422 32.4129C71.4006 32.4874 71.3397 32.555 71.2629 32.6118L50.029 48.502C49.952 48.5574 49.8611 48.6008 49.7615 48.6296C49.6619 48.6585 49.5556 48.6722 49.4489 48.67Z" fill="white"/>
<path d="M22.9398 38.5669C22.2904 38.5669 21.6556 38.4228 21.1156 38.1527C20.5756 37.8827 20.1547 37.499 19.9062 37.05C19.6577 36.601 19.5926 36.1069 19.7193 35.6302C19.846 35.1536 20.1588 34.7157 20.618 34.3721C21.0772 34.0284 21.6623 33.7944 22.2992 33.6996C22.9362 33.6047 23.5964 33.6534 24.1964 33.8394C24.7964 34.0254 25.3092 34.3403 25.67 34.7444C26.0309 35.1485 26.2234 35.6236 26.2234 36.1096C26.2234 36.7613 25.8775 37.3863 25.2617 37.8472C24.6459 38.308 23.8107 38.5669 22.9398 38.5669ZM22.9398 34.881C22.6151 34.881 22.2977 34.953 22.0277 35.088C21.7577 35.223 21.5473 35.4149 21.423 35.6394C21.2988 35.8639 21.2662 36.111 21.3296 36.3493C21.3929 36.5876 21.5493 36.8066 21.7789 36.9784C22.0085 37.1502 22.3011 37.2672 22.6196 37.3146C22.938 37.362 23.2681 37.3377 23.5681 37.2447C23.8681 37.1517 24.1246 36.9943 24.305 36.7922C24.4854 36.5902 24.5816 36.3526 24.5816 36.1096C24.5816 35.7837 24.4087 35.4713 24.1008 35.2408C23.7929 35.0104 23.3753 34.881 22.9398 34.881Z" fill="white"/>
</svg>
