<svg width="72" height="65" viewBox="0 0 72 65" fill="none" xmlns="http://www.w3.org/2000/svg">
<path fill-rule="evenodd" clip-rule="evenodd" d="M39.1882 0.151381C49.7154 1.09081 56.4095 9.13067 62.4827 16.5286C67.9237 23.1562 71.7088 30.4715 70.6839 38.5164C69.466 48.0762 66.613 58.8207 56.5447 63.1388C46.3671 67.5037 34.1903 63.4933 24.5644 58.2961C16.3268 53.8485 12.7758 46.0455 10.0795 38.0515C7.08669 29.1784 2.93153 19.466 8.86261 11.7436C15.2507 3.42619 27.598 -0.882896 39.1882 0.151381Z" fill="#141416"/>
<path d="M67.5701 53.3016H3.91C3.66555 53.3016 3.4311 53.1996 3.25825 53.018C3.08539 52.8364 2.98828 52.5902 2.98828 52.3334C2.98828 52.0766 3.08539 51.8303 3.25825 51.6488C3.4311 51.4672 3.66555 51.3652 3.91 51.3652H66.7098L69.4934 13.9862L49.2586 26.3082C49.0467 26.4374 48.7947 26.473 48.5578 26.407C48.321 26.341 48.1189 26.1789 47.9958 25.9564C47.8728 25.7339 47.8389 25.4691 47.9017 25.2203C47.9645 24.9716 48.1189 24.7592 48.3307 24.63L70.0956 11.385C70.2399 11.2904 70.4062 11.2397 70.5763 11.2383C70.7464 11.2369 70.9135 11.285 71.0591 11.3772C71.2048 11.4694 71.3233 11.6022 71.4016 11.7607C71.4799 11.9193 71.5149 12.0976 71.5027 12.2757L68.5164 52.3786C68.5022 52.6308 68.3958 52.8676 68.2195 53.0395C68.0433 53.2115 67.8106 53.3054 67.5701 53.3016Z" fill="white"/>
<path d="M67.5652 53.2967H3.9051C3.67297 53.2958 3.44975 53.2028 3.28002 53.0365C3.11028 52.8702 3.00654 52.6427 2.98952 52.3995L0.00315214 12.2709C-0.0107761 12.0944 0.021631 11.9173 0.0968533 11.7588C0.172076 11.6004 0.287232 11.4666 0.429788 11.3721C0.572345 11.2776 0.736846 11.2259 0.905392 11.2228C1.07394 11.2197 1.24008 11.2652 1.38573 11.3543L42.9184 36.6308C43.1303 36.76 43.2846 36.9724 43.3474 37.2211C43.4102 37.4699 43.3763 37.7347 43.2533 37.9572C43.1302 38.1797 42.9281 38.3418 42.6913 38.4078C42.4544 38.4738 42.2024 38.4383 41.9905 38.309L1.98178 13.9555L4.76537 51.3345H67.5652C67.8096 51.3345 68.0441 51.4365 68.2169 51.6181C68.3898 51.7997 68.4869 52.0459 68.4869 52.3027C68.4869 52.5595 68.3898 52.8058 68.2169 52.9873C68.0441 53.1689 67.8096 53.2709 67.5652 53.2709V53.2967Z" fill="white"/>
<path d="M48.5529 26.428C48.4318 26.4286 48.3118 26.4038 48.1999 26.355C48.0881 26.3062 47.9866 26.2345 47.9015 26.144L35.7533 13.3766L23.5804 26.144C23.4961 26.2391 23.3943 26.3154 23.2812 26.3683C23.1682 26.4212 23.0461 26.4497 22.9224 26.452C22.7986 26.4543 22.6757 26.4304 22.5609 26.3817C22.4461 26.333 22.3419 26.2605 22.2543 26.1686C22.1668 26.0766 22.0978 25.9671 22.0515 25.8465C22.0051 25.726 21.9823 25.5969 21.9845 25.4668C21.9867 25.3368 22.0138 25.2087 22.0642 25.0899C22.1145 24.9711 22.1872 24.8642 22.2777 24.7756L35.0773 11.3241C35.252 11.1439 35.487 11.043 35.7318 11.043C35.9765 11.043 36.2115 11.1439 36.3862 11.3241L49.1858 24.7756C49.272 24.8651 49.3404 24.9716 49.3871 25.089C49.4339 25.2065 49.4579 25.3325 49.4579 25.4598C49.4579 25.5871 49.4339 25.7131 49.3871 25.8306C49.3404 25.948 49.272 26.0545 49.1858 26.144C49.1035 26.233 49.0051 26.304 48.8965 26.3528C48.7878 26.4015 48.671 26.4271 48.5529 26.428Z" fill="white"/>
<path d="M48.824 45.3167C48.1179 45.3167 47.4277 45.0968 46.8406 44.6847C46.2535 44.2727 45.7959 43.6869 45.5257 43.0017C45.2554 42.3164 45.1848 41.5624 45.3225 40.835C45.4603 40.1075 45.8003 39.4393 46.2996 38.9148C46.7989 38.3903 47.435 38.0332 48.1275 37.8885C48.8201 37.7438 49.5379 37.818 50.1903 38.1019C50.8426 38.3857 51.4002 38.8664 51.7925 39.4831C52.1848 40.0998 52.3942 40.8249 52.3942 41.5666C52.3942 42.5612 52.018 43.5151 51.3485 44.2184C50.679 44.9217 49.7709 45.3167 48.824 45.3167ZM48.824 39.7528C48.4825 39.7528 48.1487 39.8592 47.8647 40.0585C47.5808 40.2578 47.3595 40.5411 47.2288 40.8725C47.0981 41.2039 47.0639 41.5686 47.1305 41.9204C47.1971 42.2723 47.3616 42.5955 47.6031 42.8491C47.8446 43.1028 48.1522 43.2755 48.4872 43.3455C48.8221 43.4155 49.1693 43.3796 49.4848 43.2423C49.8003 43.105 50.07 42.8725 50.2597 42.5742C50.4495 42.276 50.5507 41.9253 50.5507 41.5666C50.5507 41.0855 50.3688 40.6242 50.045 40.2841C49.7212 39.9439 49.282 39.7528 48.824 39.7528Z" fill="white"/>
</svg>
