<svg width="18" height="16" viewBox="0 0 18 16" fill="none" xmlns="http://www.w3.org/2000/svg">
<path fill-rule="evenodd" clip-rule="evenodd" d="M6.57802 0.0345479C6.12896 0.123736 5.67478 0.480131 5.48364 0.893317C5.35416 1.17318 5.30859 1.41297 5.30859 1.81453V2.12975H2.86123H0.413859L0.273621 2.20948C0.19132 2.25627 0.10582 2.34383 0.0666914 2.42142C0.0020039 2.54969 0 2.73212 0 8.52452C0 12.4371 0.012375 14.5613 0.0358945 14.6868C0.155637 15.3254 0.665543 15.8412 1.29695 15.9623C1.55865 16.0126 16.4413 16.0126 16.7031 15.9623C17.0017 15.9051 17.3122 15.7388 17.5277 15.5209C17.7431 15.303 17.9075 14.9888 17.9641 14.6868C17.9876 14.5614 18 12.44 18 8.53345V2.57156L17.9209 2.41289C17.772 2.11417 17.926 2.12985 15.1436 2.12982L12.6914 2.12975V1.81453C12.6914 1.64121 12.6753 1.41322 12.6555 1.30796C12.5358 0.669281 12.0259 0.1535 11.3945 0.0323786C11.1625 -0.0121085 6.80305 -0.0101526 6.57802 0.0345479ZM11.3564 1.13449C11.5663 1.24281 11.6367 1.41216 11.6367 1.80827V2.12975H9H6.36328V1.80827C6.36328 1.41849 6.43405 1.24416 6.63613 1.13624C6.7629 1.06856 6.84679 1.066 8.99262 1.06447C11.1548 1.06294 11.2216 1.06494 11.3564 1.13449ZM16.7257 3.24104C16.7168 3.2655 16.3419 4.40226 15.8925 5.7672C15.3181 7.51159 15.0495 8.27989 14.9885 8.35326C14.9408 8.41062 14.8434 8.47395 14.7722 8.49397C14.6931 8.5162 14.0563 8.53046 13.1396 8.53056L11.6367 8.53078V8.2093C11.6367 7.81319 11.5663 7.64384 11.3564 7.53552C11.2217 7.46604 11.1532 7.46394 9 7.46394C6.84679 7.46394 6.77834 7.46604 6.64362 7.53552C6.43373 7.64384 6.36328 7.81319 6.36328 8.2093V8.53078L4.86035 8.53056C3.94369 8.53046 3.30687 8.5162 3.22784 8.49397C3.15657 8.47395 3.05923 8.41062 3.01148 8.35326C2.95049 8.27989 2.68193 7.51159 2.10755 5.7672C1.65814 4.40226 1.28317 3.2655 1.27427 3.24104C1.26137 3.20555 2.82129 3.19659 9 3.19659C15.1787 3.19659 16.7386 3.20555 16.7257 3.24104ZM2.00282 8.74255C2.11778 8.96964 2.4293 9.28532 2.64987 9.39819C3.02692 9.59114 3.087 9.59673 4.79004 9.59719L6.36328 9.59762V9.91909C6.36328 10.3152 6.43373 10.4846 6.64362 10.5929C6.77834 10.6624 6.84679 10.6645 9 10.6645C11.1532 10.6645 11.2217 10.6624 11.3564 10.5929C11.5663 10.4846 11.6367 10.3152 11.6367 9.91909V9.59762L13.21 9.59719C14.913 9.59673 14.9731 9.59114 15.3501 9.39819C15.5707 9.28532 15.8822 8.96964 15.9972 8.74255C16.0413 8.65542 16.2714 8.00003 16.5086 7.28613L16.9398 5.98815L16.9426 10.248C16.9453 14.45 16.9444 14.5098 16.8745 14.6482C16.829 14.7386 16.7543 14.8141 16.665 14.8602C16.5272 14.9313 16.4736 14.9318 9 14.9318C1.52638 14.9318 1.4728 14.9313 1.33502 14.8602C1.24569 14.8141 1.17102 14.7386 1.12546 14.6482C1.05564 14.5098 1.05472 14.45 1.05743 10.248L1.06017 5.98815L1.4914 7.28613C1.72856 8.00003 1.9587 8.65542 2.00282 8.74255ZM10.582 9.0642V9.59762H9H7.41797V9.0642V8.53078H9H10.582V9.0642Z" fill="black"/>
</svg>
