<svg width="82" height="65" viewBox="0 0 82 65" fill="none" xmlns="http://www.w3.org/2000/svg">
<path fill-rule="evenodd" clip-rule="evenodd" d="M39.1882 0.151381C49.7154 1.09081 56.4094 9.13067 62.4827 16.5286C67.9237 23.1562 71.7088 30.4715 70.6839 38.5164C69.466 48.0762 66.613 58.8207 56.5447 63.1388C46.3671 67.5037 34.1903 63.4933 24.5644 58.2961C16.3268 53.8485 12.7758 46.0455 10.0795 38.0515C7.08669 29.1784 2.93153 19.466 8.86261 11.7436C15.2507 3.42619 27.598 -0.882896 39.1882 0.151381Z" fill="#141416"/>
<path d="M21.1182 53.293C15.5173 53.293 10.1458 51.0673 6.18536 47.1056C2.22493 43.1439 0 37.7707 0 32.168C0 26.5653 2.22493 21.1921 6.18536 17.2304C10.1458 13.2686 15.5173 11.043 21.1182 11.043C32.5018 11.043 55.3075 30.7054 56.2969 31.5467C56.3852 31.6243 56.4559 31.7198 56.5042 31.827C56.5526 31.9341 56.5775 32.0504 56.5772 32.168C56.5768 32.2854 56.5515 32.4015 56.5032 32.5085C56.4549 32.6156 56.3846 32.7113 56.2969 32.7893C55.3075 33.6306 32.5018 53.293 21.1182 53.293ZM21.1182 12.6925C15.9546 12.6925 11.0026 14.7444 7.35139 18.3968C3.70021 22.0491 1.649 27.0028 1.649 32.168C1.649 37.3332 3.70021 42.2869 7.35139 45.9392C11.0026 49.5916 15.9546 51.6434 21.1182 51.6434C30.8033 51.6434 50.4265 35.5605 54.461 32.168C50.4265 28.7755 30.7978 12.6925 21.1182 12.6925Z" fill="white"/>
<path d="M60.7905 53.293C49.4069 53.293 26.5957 33.6306 25.6118 32.7893C25.5302 32.7171 25.4637 32.6295 25.4159 32.5316C25.3682 32.4336 25.3402 32.3273 25.3336 32.2185C25.3269 32.1098 25.3418 32.0008 25.3773 31.8978C25.4127 31.7948 25.4682 31.6997 25.5403 31.6181C25.6125 31.5366 25.7001 31.47 25.798 31.4222C25.8959 31.3745 26.0022 31.3465 26.1109 31.3398C26.2196 31.3332 26.3286 31.348 26.4316 31.3835C26.5345 31.419 26.6296 31.4745 26.7111 31.5467C26.942 31.7446 50.017 51.6434 60.7905 51.6434C65.954 51.6434 70.9061 49.5916 74.5573 45.9392C78.2085 42.2869 80.2597 37.3332 80.2597 32.168C80.2597 27.0028 78.2085 22.0491 74.5573 18.3968C70.9061 14.7444 65.954 12.6925 60.7905 12.6925C56.657 12.6925 49.9565 15.7551 41.4202 21.545C41.2394 21.6682 41.0171 21.7146 40.8022 21.6738C40.5873 21.6331 40.3973 21.5086 40.2742 21.3278C40.151 21.147 40.1046 20.9246 40.1454 20.7096C40.1861 20.4946 40.3105 20.3046 40.4912 20.1814C49.4343 14.1331 56.2612 11.043 60.7905 11.043C66.3914 11.043 71.7628 13.2686 75.7233 17.2304C79.6837 21.1921 81.9087 26.5653 81.9087 32.168C81.9087 37.7707 79.6837 43.1439 75.7233 47.1056C71.7628 51.0673 66.3914 53.293 60.7905 53.293Z" fill="white"/>
<path d="M34.4588 30.0647C33.7727 30.0932 33.0937 29.9157 32.5092 29.555C31.9248 29.1943 31.4616 28.6669 31.1792 28.0407C30.8969 27.4144 30.8084 26.718 30.925 26.041C31.0416 25.364 31.3581 24.7375 31.8337 24.2419C32.3093 23.7463 32.9222 23.4045 33.5937 23.2603C34.2651 23.1161 34.9644 23.1762 35.6014 23.4328C36.2384 23.6894 36.7841 24.1309 37.1682 24.7003C37.5524 25.2698 37.7573 25.9412 37.7568 26.6281C37.7716 27.5203 37.4332 28.3822 36.8155 29.0259C36.1977 29.6697 35.3506 30.043 34.4588 30.0647ZM34.4588 24.8356C34.0983 24.8058 33.7371 24.8854 33.4225 25.0642C33.1079 25.243 32.8546 25.5126 32.6957 25.8377C32.5368 26.1628 32.4796 26.5283 32.5318 26.8865C32.5839 27.2446 32.7428 27.5787 32.9878 27.845C33.2328 28.1113 33.5524 28.2975 33.9049 28.3791C34.2574 28.4608 34.6263 28.4341 34.9634 28.3027C35.3004 28.1712 35.59 27.941 35.7942 27.6422C35.9984 27.3435 36.1077 26.99 36.1078 26.6281C36.1213 26.1748 35.9558 25.7343 35.6473 25.402C35.3387 25.0697 34.9118 24.8722 34.4588 24.8521V24.8356Z" fill="white"/>
</svg>
