<svg width="16" height="16" viewBox="0 0 16 16" fill="none" xmlns="http://www.w3.org/2000/svg">
<g clip-path="url(#clip0_3_322)">
<path d="M11.6689 0H4.33105C1.94287 0 0 1.94287 0 4.33105V11.669C0 14.0571 1.94287 16 4.33105 16H11.669C14.0571 16 16 14.0571 16 11.669V4.33105C16 1.94287 14.0571 0 11.6689 0V0ZM15.062 11.669C15.062 13.5399 13.5399 15.062 11.6689 15.062H4.33105C2.46008 15.062 0.937986 13.5399 0.937986 11.669V4.33105C0.937986 2.46008 2.46008 0.937986 4.33105 0.937986H11.669C13.5399 0.937986 15.062 2.46008 15.062 4.33105V11.669Z" fill="white"/>
<path d="M7.99999 3.625C5.58764 3.625 3.62512 5.58752 3.62512 7.99987C3.62512 10.4122 5.58764 12.3747 7.99999 12.3747C10.4123 12.3747 12.3749 10.4122 12.3749 7.99987C12.3749 5.58752 10.4123 3.625 7.99999 3.625ZM7.99999 11.4368C6.10498 11.4368 4.56311 9.89501 4.56311 7.99987C4.56311 6.10485 6.10498 4.56299 7.99999 4.56299C9.89513 4.56299 11.4369 6.10485 11.4369 7.99987C11.4369 9.89501 9.89513 11.4368 7.99999 11.4368Z" fill="white"/>
<path d="M12.4795 2.07129C11.7666 2.07129 11.1867 2.65124 11.1867 3.36401C11.1867 4.0769 11.7666 4.65686 12.4795 4.65686C13.1923 4.65686 13.7723 4.0769 13.7723 3.36401C13.7723 2.65112 13.1923 2.07129 12.4795 2.07129ZM12.4795 3.71875C12.2839 3.71875 12.1247 3.55957 12.1247 3.36401C12.1247 3.16833 12.2839 3.00928 12.4795 3.00928C12.6751 3.00928 12.8343 3.16833 12.8343 3.36401C12.8343 3.55957 12.6751 3.71875 12.4795 3.71875Z" fill="white"/>
</g>
<defs>
<clipPath id="clip0_3_322">
<rect width="16" height="16" fill="white"/>
</clipPath>
</defs>
</svg>
