<svg width="16" height="16" viewBox="0 0 16 16" fill="none" xmlns="http://www.w3.org/2000/svg">
<g clip-path="url(#clip0_3_323)">
<path d="M16 3.21764C14.9935 3.26403 15.0155 3.26024 14.9017 3.26976L15.4978 1.56749C15.4978 1.56749 13.6372 2.25194 13.1655 2.37438C11.9268 1.26097 10.0854 1.21178 8.76904 2.02086C7.69104 2.68358 7.11243 3.82164 7.30542 5.15184C5.2074 4.86071 3.4397 3.8662 2.04407 2.18969L1.60266 1.65953L1.27283 2.26525C0.855957 3.03063 0.717529 3.90575 0.882934 4.72936C0.950806 5.06725 1.06616 5.38952 1.22595 5.69127L0.84729 5.54454L0.802368 6.17724C0.756836 6.81994 0.970825 7.57018 1.37488 8.18395C1.48865 8.3568 1.63513 8.54662 1.8208 8.73388L1.62512 8.70385L1.86389 9.42882C2.17773 10.3813 2.82959 11.1183 3.67554 11.5279C2.83069 11.8865 2.14819 12.1152 1.02637 12.4842L0 12.8216L0.947998 13.34C1.30945 13.5376 2.58667 14.1976 3.84863 14.3956C6.65381 14.8356 9.81213 14.4773 11.9384 12.5624C13.7292 10.9495 14.3169 8.65514 14.1948 6.26757C14.1764 5.90612 14.2754 5.56115 14.4736 5.29638C14.8707 4.76622 15.9976 3.22118 16 3.21764ZM13.724 4.73485C13.3948 5.17443 13.2299 5.73583 13.2594 6.31542C13.3826 8.72374 12.7273 10.5914 11.3116 11.8663C9.65796 13.3557 6.9906 13.9403 3.99377 13.4702C3.45105 13.3851 2.89014 13.1946 2.4259 13.0043C3.36645 12.6807 4.09277 12.3922 5.26575 11.837L6.9032 11.062L5.09534 10.9463C4.22937 10.8909 3.5083 10.4712 3.06506 9.78978C3.30041 9.77611 3.52734 9.73803 3.7533 9.67504L5.47754 9.19481L3.73889 8.76903C2.89404 8.56212 2.41248 8.05663 2.15723 7.66893C1.98962 7.41417 1.88013 7.15319 1.81445 6.91259C1.98877 6.95934 2.19202 6.99266 2.51978 7.02514L4.12903 7.18432L2.854 6.18969C1.9353 5.47313 1.56714 4.3966 1.83704 3.36168C4.70422 6.33556 8.07068 6.11205 8.40954 6.19066C8.33496 5.46618 8.33301 5.46447 8.31348 5.3955C7.87952 3.86144 8.83057 3.08251 9.25952 2.81884C10.1555 2.26818 11.5778 2.18517 12.5629 3.0924C12.7756 3.2882 13.0634 3.36522 13.3326 3.29833C13.5743 3.23827 13.7727 3.17467 13.9669 3.10546L13.5626 4.26L14.0787 4.26036C13.9813 4.39098 13.8645 4.54735 13.724 4.73485Z" fill="white"/>
</g>
<defs>
<clipPath id="clip0_3_323">
<rect width="16" height="16" fill="white"/>
</clipPath>
</defs>
</svg>
