<svg width="187" height="158" viewBox="0 0 187 158" fill="none" xmlns="http://www.w3.org/2000/svg">
<mask id="path-1-inside-1_3_41" fill="white">
<path d="M186.904 111.476C179.848 122.591 170.671 132.208 159.899 139.777C149.126 147.346 136.968 152.718 124.118 155.589C111.269 158.459 97.9803 158.77 85.0107 156.505C72.0411 154.239 59.6448 149.441 48.5295 142.385C37.4141 135.329 27.7974 126.152 20.2285 115.379C12.6596 104.607 7.28666 92.4484 4.41646 79.5992C1.54627 66.7499 1.23503 53.4611 3.50053 40.4915C5.76602 27.522 10.5639 15.1256 17.6202 4.01028L102.262 57.743L186.904 111.476Z"/>
</mask>
<path d="M186.904 111.476C179.848 122.591 170.671 132.208 159.899 139.777C149.126 147.346 136.968 152.718 124.118 155.589C111.269 158.459 97.9803 158.77 85.0107 156.505C72.0411 154.239 59.6448 149.441 48.5295 142.385C37.4141 135.329 27.7974 126.152 20.2285 115.379C12.6596 104.607 7.28666 92.4484 4.41646 79.5992C1.54627 66.7499 1.23503 53.4611 3.50053 40.4915C5.76602 27.522 10.5639 15.1256 17.6202 4.01028L102.262 57.743L186.904 111.476Z" stroke="black" stroke-width="10" mask="url(#path-1-inside-1_3_41)"/>
<mask id="path-2-inside-2_3_41" fill="white">
<path d="M184.899 107.465C177.843 118.581 168.666 128.197 157.893 135.766C147.121 143.335 134.962 148.708 122.113 151.578C109.264 154.449 95.9751 154.76 83.0056 152.494C70.036 150.229 57.6397 145.431 46.5243 138.375C35.409 131.318 25.7923 122.142 18.2234 111.369C10.6545 100.596 5.28152 88.4382 2.41132 75.5889C-0.458872 62.7396 -0.770107 49.4508 1.49539 36.4813C3.76088 23.5117 8.55874 11.1153 15.615 3.29172e-07L100.257 53.7327L184.899 107.465Z"/>
</mask>
<path d="M184.899 107.465C177.843 118.581 168.666 128.197 157.893 135.766C147.121 143.335 134.962 148.708 122.113 151.578C109.264 154.449 95.9751 154.76 83.0056 152.494C70.036 150.229 57.6397 145.431 46.5243 138.375C35.409 131.318 25.7923 122.142 18.2234 111.369C10.6545 100.596 5.28152 88.4382 2.41132 75.5889C-0.458872 62.7396 -0.770107 49.4508 1.49539 36.4813C3.76088 23.5117 8.55874 11.1153 15.615 3.29172e-07L100.257 53.7327L184.899 107.465Z" fill="#FF4A4A" stroke="black" stroke-width="2" mask="url(#path-2-inside-2_3_41)"/>
</svg>
